<svg width="40" height="30" viewBox="0 0 40 30" fill="none" xmlns="http://www.w3.org/2000/svg">
<path d="M39.2745 15.3175L30.3604 29.5146C30.2454 29.6901 30.0517 29.799 29.846 29.799H18.7414C18.5174 29.799 18.3178 29.6779 18.2088 29.4843C18.0998 29.2967 18.1059 29.0607 18.2269 28.8731L26.9473 14.9967L18.2269 1.12644C18.1059 0.93886 18.0998 0.702844 18.2088 0.515188C18.3177 0.321594 18.5174 0.2005 18.7414 0.2005H29.846C30.0517 0.2005 30.2454 0.309485 30.3604 0.484954L39.2745 14.676C39.3955 14.8696 39.3955 15.1239 39.2745 15.3175Z" fill="#252422"/>
<path d="M12.3474 29.7998C12.5558 29.7998 12.7493 29.6929 12.8598 29.5161L21.7742 15.3179C21.898 15.1218 21.898 14.8712 21.7742 14.6744L12.8599 0.483181C12.7491 0.307087 12.5555 0.200134 12.3475 0.200134H1.24002C1.01986 0.200134 0.816891 0.320135 0.710173 0.512791C0.603766 0.705447 0.610329 0.940681 0.727595 1.1274L9.44627 14.9965L0.727673 28.8726C0.610329 29.0594 0.603845 29.2946 0.710563 29.4872C0.81697 29.6805 1.01994 29.7999 1.24009 29.7999H12.3474V29.7998ZM10.6735 15.3185C10.7974 15.1217 10.7974 14.8712 10.6735 14.6744L2.33541 1.41045H12.013L20.5473 14.9965L12.013 28.5895H2.33509L10.6735 15.3185Z" fill="#252422"/>
</svg>
