<svg width="39" height="40" viewBox="0 0 39 40" fill="none" xmlns="http://www.w3.org/2000/svg">
<path d="M20.0243 7.40601C19.9584 7.25039 19.7679 6.87134 19.3846 6.87256C19.2355 6.88313 19.0935 6.94033 18.9787 7.03606C18.8639 7.1318 18.7822 7.26123 18.745 7.40601C17.6885 9.917 13.9562 18.3954 10.2934 22.0581C10.1922 22.1593 10.1288 22.2921 10.1138 22.4345C10.0988 22.5768 10.1331 22.7199 10.2111 22.84L13.2343 27.5H12.5096C12.4275 27.5 12.3463 27.5161 12.2704 27.5475C12.1946 27.5789 12.1256 27.6249 12.0676 27.683C12.0095 27.741 11.9635 27.8099 11.9321 27.8858C11.9007 27.9616 11.8846 28.0429 11.8846 28.125V32.5C11.8846 32.5821 11.9007 32.6634 11.9321 32.7392C11.9635 32.8151 12.0095 32.884 12.0676 32.942C12.1256 33.0001 12.1946 33.0461 12.2704 33.0775C12.3463 33.1089 12.4275 33.125 12.5096 33.125H13.7596V39.375C13.7596 39.4571 13.7757 39.5384 13.8071 39.6142C13.8385 39.6901 13.8845 39.759 13.9426 39.817C14.0006 39.8751 14.0696 39.9211 14.1454 39.9525C14.2213 39.9839 14.3025 40 14.3846 40H24.3846C24.4667 40 24.548 39.9839 24.6239 39.9525C24.6997 39.9211 24.7686 39.8751 24.8267 39.817C24.8847 39.759 24.9308 39.6901 24.9622 39.6142C24.9935 39.5384 25.0097 39.4571 25.0096 39.375V33.125H26.2596C26.3417 33.125 26.423 33.1089 26.4989 33.0775C26.5747 33.0461 26.6436 33.0001 26.7017 32.942C26.7597 32.884 26.8058 32.8151 26.8372 32.7392C26.8685 32.6634 26.8847 32.5821 26.8846 32.5V28.125C26.8847 28.0429 26.8685 27.9616 26.8372 27.8858C26.8058 27.8099 26.7597 27.741 26.7017 27.683C26.6436 27.6249 26.5747 27.5789 26.4989 27.5475C26.423 27.5161 26.3417 27.5 26.2596 27.5H25.535L28.5582 22.84C28.6361 22.72 28.6705 22.5768 28.6555 22.4345C28.6405 22.2921 28.5771 22.1593 28.4758 22.0581C24.8131 18.3954 21.0808 9.917 20.0243 7.40601ZM19.3846 20.625C19.6319 20.625 19.8735 20.6983 20.0791 20.8357C20.2847 20.973 20.4449 21.1682 20.5395 21.3966C20.6341 21.6251 20.6588 21.8764 20.6106 22.1189C20.5624 22.3613 20.4433 22.5841 20.2685 22.7589C20.0937 22.9337 19.871 23.0528 19.6285 23.101C19.386 23.1492 19.1347 23.1245 18.9063 23.0299C18.6779 22.9352 18.4826 22.775 18.3453 22.5695C18.2079 22.3639 18.1346 22.1222 18.1346 21.875C18.1351 21.5436 18.2669 21.2259 18.5012 20.9916C18.7356 20.7573 19.0532 20.6254 19.3846 20.625ZM23.7596 38.75H15.0096V33.125H23.7596V38.75ZM25.6346 31.875H13.1346V28.75H25.6346V31.875ZM24.0453 27.5H14.724L11.53 22.5763C14.3504 19.5483 17.0711 14.1902 18.7596 10.485V19.4638C18.1705 19.6159 17.657 19.9776 17.3155 20.4813C16.974 20.9849 16.8279 21.5957 16.9046 22.1994C16.9812 22.803 17.2754 23.358 17.732 23.7602C18.1886 24.1624 18.7762 24.3844 19.3846 24.3844C19.9931 24.3844 20.5807 24.1624 21.0373 23.7602C21.4938 23.358 21.788 22.803 21.8647 22.1994C21.9414 21.5957 21.7953 20.9849 21.4538 20.4813C21.1123 19.9776 20.5988 19.6159 20.0096 19.4638V10.485C21.6981 14.1903 24.4189 19.5483 27.2392 22.5763L24.0453 27.5Z" fill="#252422"/>
<path d="M36.2594 6.08691e-06C35.7066 0.00159925 35.17 0.186546 34.7336 0.52586C34.2973 0.865175 33.9858 1.33968 33.8481 1.87501H21.8844V0.625006C21.8844 0.542917 21.8683 0.461623 21.8369 0.385773C21.8055 0.309924 21.7595 0.241006 21.7014 0.18296C21.6434 0.124914 21.5744 0.0788786 21.4986 0.047486C21.4227 0.0160934 21.3415 -4.07441e-05 21.2594 6.08691e-06H17.5094C17.4273 -4.07441e-05 17.346 0.0160934 17.2701 0.047486C17.1943 0.0788786 17.1254 0.124914 17.0673 0.18296C17.0093 0.241006 16.9632 0.309924 16.9318 0.385773C16.9005 0.461623 16.8843 0.542917 16.8844 0.625006V1.87501H4.92061C4.76849 1.28584 4.40672 0.772388 3.90311 0.43088C3.3995 0.0893722 2.78862 -0.0567397 2.18499 0.0199318C1.58136 0.0966034 1.02641 0.390794 0.624163 0.847361C0.22192 1.30393 0 1.89152 0 2.50001C0 3.10849 0.22192 3.69608 0.624163 4.15265C1.02641 4.60922 1.58136 4.90341 2.18499 4.98008C2.78862 5.05675 3.3995 4.91064 3.90311 4.56913C4.40672 4.22762 4.76849 3.71417 4.92061 3.12501H12.2431C10.8629 3.82352 9.63694 4.79191 8.6378 5.97283C7.63866 7.15376 6.88667 8.52318 6.42639 10H5.00936C4.92727 9.99996 4.84598 10.0161 4.77013 10.0475C4.69428 10.0789 4.62536 10.1249 4.56732 10.183C4.50927 10.241 4.46324 10.3099 4.43184 10.3858C4.40045 10.4616 4.38432 10.5429 4.38436 10.625V14.375C4.38432 14.4571 4.40045 14.5384 4.43184 14.6142C4.46324 14.6901 4.50927 14.759 4.56732 14.8171C4.62536 14.8751 4.69428 14.9211 4.77013 14.9525C4.84598 14.9839 4.92727 15.0001 5.00936 15H8.75936C8.84145 15.0001 8.92275 14.9839 8.9986 14.9525C9.07445 14.9211 9.14336 14.8751 9.20141 14.8171C9.25946 14.759 9.30549 14.6901 9.33688 14.6142C9.36828 14.5384 9.38441 14.4571 9.38436 14.375V10.625C9.38441 10.5429 9.36828 10.4616 9.33688 10.3858C9.30549 10.3099 9.25946 10.241 9.20141 10.183C9.14336 10.1249 9.07445 10.0789 8.9986 10.0475C8.92275 10.0161 8.84145 9.99996 8.75936 10H7.749C8.42612 8.08436 9.65479 6.41184 11.2804 5.19294C12.9059 3.97405 14.8557 3.26327 16.8844 3.15007V4.37501C16.8843 4.45709 16.9005 4.53839 16.9318 4.61424C16.9632 4.69009 17.0093 4.75901 17.0673 4.81705C17.1254 4.8751 17.1943 4.92113 17.2701 4.95253C17.346 4.98392 17.4273 5.00005 17.5094 5.00001H21.2594C21.3415 5.00005 21.4227 4.98392 21.4986 4.95253C21.5744 4.92113 21.6434 4.8751 21.7014 4.81705C21.7595 4.75901 21.8055 4.69009 21.8369 4.61424C21.8683 4.53839 21.8844 4.45709 21.8844 4.37501V3.15007C23.913 3.26329 25.8627 3.97408 27.4883 5.19297C29.1138 6.41186 30.3424 8.08438 31.0195 10H30.0094C29.9273 9.99996 29.846 10.0161 29.7701 10.0475C29.6943 10.0789 29.6254 10.1249 29.5673 10.183C29.5093 10.241 29.4632 10.3099 29.4318 10.3858C29.4005 10.4616 29.3843 10.5429 29.3844 10.625V14.375C29.3843 14.4571 29.4005 14.5384 29.4318 14.6142C29.4632 14.6901 29.5093 14.759 29.5673 14.8171C29.6254 14.8751 29.6943 14.9211 29.7701 14.9525C29.846 14.9839 29.9273 15.0001 30.0094 15H33.7594C33.8414 15.0001 33.9227 14.9839 33.9986 14.9525C34.0744 14.9211 34.1434 14.8751 34.2014 14.8171C34.2595 14.759 34.3055 14.6901 34.3369 14.6142C34.3683 14.5384 34.3844 14.4571 34.3844 14.375V10.625C34.3844 10.5429 34.3683 10.4616 34.3369 10.3858C34.3055 10.3099 34.2595 10.241 34.2014 10.183C34.1434 10.1249 34.0744 10.0789 33.9986 10.0475C33.9227 10.0161 33.8414 9.99996 33.7594 10H32.3422C31.8819 8.5232 31.1299 7.15379 30.1308 5.97287C29.1317 4.79195 27.9057 3.82354 26.5255 3.12501H33.8481C33.9658 3.57671 34.2077 3.98637 34.5465 4.30747C34.8853 4.62856 35.3073 4.84822 35.7647 4.9415C36.222 5.03479 36.6964 4.99795 37.1338 4.83517C37.5713 4.6724 37.9544 4.39021 38.2395 4.02066C38.5247 3.65111 38.7005 3.209 38.747 2.74455C38.7935 2.2801 38.7088 1.81192 38.5026 1.39318C38.2963 0.974432 37.9768 0.62191 37.5803 0.375645C37.1838 0.129379 36.7261 -0.000760143 36.2594 6.08691e-06ZM8.13436 13.75H5.63436V11.25H8.13436V13.75ZM33.1344 13.75H30.6344V11.25H33.1344V13.75ZM2.50936 3.75001C2.26214 3.75001 2.02046 3.67669 1.8149 3.53934C1.60934 3.40199 1.44912 3.20677 1.35452 2.97836C1.25991 2.74995 1.23515 2.49862 1.28338 2.25614C1.33161 2.01367 1.45067 1.79094 1.62548 1.61612C1.8003 1.44131 2.02303 1.32226 2.2655 1.27402C2.50798 1.22579 2.75931 1.25055 2.98772 1.34516C3.21613 1.43977 3.41135 1.59998 3.5487 1.80554C3.68605 2.0111 3.75936 2.25278 3.75936 2.50001C3.75893 2.83139 3.6271 3.14909 3.39277 3.38341C3.15845 3.61774 2.84075 3.74958 2.50936 3.75001ZM20.6344 3.75001H18.1344V1.25001H20.6344V3.75001ZM36.2594 3.75001C36.0121 3.75001 35.7705 3.67669 35.5649 3.53934C35.3593 3.40199 35.1991 3.20677 35.1045 2.97836C35.0099 2.74995 34.9851 2.49862 35.0334 2.25614C35.0816 2.01367 35.2007 1.79094 35.3755 1.61612C35.5503 1.44131 35.773 1.32226 36.0155 1.27402C36.258 1.22579 36.5093 1.25055 36.7377 1.34516C36.9661 1.43977 37.1613 1.59998 37.2987 1.80554C37.4361 2.0111 37.5094 2.25278 37.5094 2.50001C37.5089 2.83139 37.3771 3.14909 37.1428 3.38341C36.9084 3.61774 36.5908 3.74958 36.2594 3.75001Z" fill="#252422"/>
</svg>
