<svg id="Layer_1" enable-background="new 0 0 66 66" height="512" viewBox="0 0 66 66" width="512" fill="#252422" xmlns="http://www.w3.org/2000/svg"><g><path d="m5.71 52.55c2.6 0 4.71-2.11 4.71-4.71 0-.63-.13-1.23-.36-1.78l4.44-3.18c1.45 1.18 3.3 1.89 5.31 1.89.12 0 .24 0 .31-.01h11.47v9.6c-2.12.46-3.71 2.34-3.71 4.6 0 2.6 2.11 4.71 4.71 4.71s4.71-2.11 4.71-4.71c0-2.25-1.59-4.13-3.71-4.59v-9.6h.65 12.81c1.63 0 3.13-.58 4.29-1.55l4.6 3.23c-.23.56-.37 1.17-.37 1.82 0 2.6 2.11 4.71 4.71 4.71s4.72-2.12 4.72-4.71c0-2.6-2.11-4.71-4.71-4.71-1.23 0-2.34.49-3.18 1.26l-4.42-3.11c.69-1.06 1.09-2.31 1.09-3.67 0-3.28-2.3-5.99-5.4-6.6.04-.32.06-.65.06-.97 0-1.98-.69-3.8-1.84-5.24l5.1-3.1c.86.9 2.06 1.46 3.4 1.46 2.6 0 4.71-2.11 4.71-4.71s-2.11-4.71-4.71-4.71-4.71 2.11-4.71 4.71c0 .54.11 1.05.28 1.53l-5.55 3.37c-2.95-2.26-6.75-2.17-9.46-.51-.61-.7-1.3-1.3-2.06-1.82v-9.83c2.11-.46 3.71-2.34 3.71-4.59 0-2.6-2.11-4.71-4.71-4.71s-4.71 2.11-4.71 4.71c0 2.25 1.59 4.14 3.71 4.6v8.73c-1.33-.56-2.77-.87-4.25-.87-3.2 0-6.1 1.38-8.12 3.59l-5.34-2.88c.12-.42.21-.85.21-1.3 0-2.6-2.11-4.71-4.71-4.71s-4.71 2.11-4.71 4.71 2.11 4.71 4.71 4.71c1.42 0 2.68-.65 3.55-1.65l5.06 2.73c-.76 1.22-1.28 2.62-1.5 3.94-.01 0-.02.01-.03.01-4.99 2.11-6.66 8.43-3.36 12.78l-4.19 2.99c-.84-.79-1.97-1.28-3.21-1.28-2.6 0-4.71 2.11-4.71 4.71 0 2.6 2.11 4.71 4.71 4.71zm29.59 6.42c0 1.49-1.21 2.71-2.71 2.71-1.49 0-2.71-1.21-2.71-2.71s1.21-2.71 2.71-2.71c1.49 0 2.71 1.22 2.71 2.71zm19.79-42.79c1.49 0 2.71 1.21 2.71 2.71s-1.21 2.71-2.71 2.71-2.71-1.21-2.71-2.71 1.21-2.71 2.71-2.71zm-25.21-9.15c0-1.49 1.21-2.71 2.71-2.71 1.49 0 2.71 1.21 2.71 2.71s-1.21 2.71-2.71 2.71c-1.49 0-2.71-1.22-2.71-2.71zm-20.5 14.57c-1.49 0-2.71-1.21-2.71-2.71s1.21-2.71 2.71-2.71c1.49 0 2.71 1.21 2.71 2.71s-1.22 2.71-2.71 2.71zm50.91 23.96c1.49 0 2.71 1.21 2.71 2.71s-1.21 2.71-2.71 2.71-2.71-1.21-2.71-2.71 1.22-2.71 2.71-2.71zm-43.92-14.61c.06 1.53.42 2.99 1.09 4.37l1.8-.88c-.61-1.24-.92-2.57-.92-3.96 0-4.89 3.96-8.99 8.99-8.99 2.59 0 5.04 1.13 6.74 3.06-.7.7-1.3 1.51-1.72 2.44l1.82.83c2.83-6.18 12.25-4.23 12.25 2.66 0 .3-.03.6-.07.9-1.69.18-3.29.99-4.42 2.3l1.52 1.3c.94-1.1 2.37-1.7 3.79-1.64 2.5.11 4.52 2.2 4.52 4.71 0 2.6-2.12 4.72-4.72 4.72h-12.81c-7.93 0-11.41 0-12.94 0-1.2 0-1.22 0-1.25 0-.08 0-.16.01-.24.01-5.72 0-9.2-7.36-3.43-11.83zm-10.66 14.18c1.49 0 2.71 1.21 2.71 2.71s-1.21 2.71-2.71 2.71-2.71-1.22-2.71-2.71 1.21-2.71 2.71-2.71z"/></g></svg>