<svg width="40" height="40" viewBox="0 0 40 40" fill="none" xmlns="http://www.w3.org/2000/svg">
<g clip-path="url(#clip0_202_864)">
<path d="M13.0312 17.1063C13.1242 17.2344 13.2624 17.3225 13.4179 17.3526C13.5733 17.3828 13.7344 17.3528 13.8687 17.2687C13.9985 17.1756 14.0877 17.0362 14.1179 16.8792C14.1481 16.7223 14.1171 16.5598 14.0312 16.425C13.7831 16.0458 13.4622 15.7195 13.0871 15.4652C12.712 15.2109 12.2901 15.0335 11.846 14.9434C11.4018 14.8533 10.9442 14.8522 10.4997 14.9403C10.0551 15.0283 9.63244 15.2037 9.25616 15.4562C9.16327 15.5597 9.10752 15.6912 9.09774 15.8299C9.08796 15.9685 9.1247 16.1065 9.20215 16.222C9.27961 16.3375 9.39335 16.4238 9.52538 16.4674C9.65742 16.5109 9.8002 16.5092 9.93116 16.4625C10.1767 16.3002 10.4518 16.1881 10.7408 16.1327C11.0299 16.0772 11.327 16.0794 11.6151 16.1393C11.9033 16.1991 12.1767 16.3153 12.4197 16.4813C12.6628 16.6473 12.8706 16.8597 13.0312 17.1063Z" fill="#252422"/>
<path d="M10.4123 25.9688C10.1242 25.9093 9.8507 25.7934 9.60753 25.6278C9.36436 25.4622 9.15634 25.2502 8.99543 25.0039C8.83453 24.7576 8.72392 24.4819 8.66997 24.1927C8.61603 23.9035 8.6198 23.6065 8.68109 23.3188C8.66373 23.1855 8.60391 23.0615 8.5105 22.9649C8.41709 22.8684 8.29506 22.8045 8.16249 22.7828C8.02992 22.761 7.89388 22.7826 7.77452 22.8442C7.65516 22.9058 7.55884 23.0043 7.49984 23.125C7.40698 23.5688 7.40317 24.0267 7.48864 24.472C7.57411 24.9173 7.74716 25.3413 7.99775 25.7192C8.24834 26.0971 8.57148 26.4215 8.94842 26.6735C9.32536 26.9256 9.7486 27.1003 10.1936 27.1875H10.3123C10.4471 27.1637 10.5704 27.0963 10.6632 26.9956C10.7559 26.895 10.8131 26.7667 10.8259 26.6304C10.8386 26.4941 10.8063 26.3574 10.7339 26.2412C10.6614 26.1251 10.5529 26.036 10.4248 25.9875L10.4123 25.9688Z" fill="#252422"/>
<path d="M13.7501 23.375C13.7607 23.2797 13.7492 23.1833 13.7166 23.0931C13.684 23.003 13.6311 22.9216 13.562 22.8551C13.4929 22.7887 13.4094 22.7391 13.318 22.71C13.2267 22.681 13.1299 22.6734 13.0351 22.6878C12.9403 22.7022 12.8501 22.7382 12.7715 22.793C12.6928 22.8479 12.6279 22.92 12.5816 23.004C12.5353 23.0879 12.5089 23.1814 12.5046 23.2772C12.5002 23.3729 12.5179 23.4684 12.5563 23.5562C12.6636 24.3772 13.0645 25.1314 13.685 25.6795C14.3055 26.2276 15.1034 26.5324 15.9313 26.5375C16.0985 26.5396 16.2657 26.5291 16.4313 26.5063C16.5883 26.4786 16.7288 26.3921 16.8241 26.2643C16.9193 26.1365 16.9622 25.9771 16.9438 25.8188C16.9162 25.6618 16.8296 25.5213 16.7018 25.426C16.574 25.3307 16.4146 25.2879 16.2563 25.3063C15.6679 25.3824 15.0733 25.2218 14.6033 24.8596C14.1333 24.4975 13.8264 23.9634 13.7501 23.375Z" fill="#252422"/>
<path d="M37.719 24.3312C37.2205 24.3324 36.7362 24.4969 36.34 24.7993C35.9439 25.1018 35.6577 25.5257 35.5252 26.0062H33.4315L30.2565 22.3625C30.1988 22.2985 30.1284 22.2472 30.0499 22.2117C29.9714 22.1762 29.8864 22.1573 29.8002 22.1562H21.344V20.9875V17.8625H29.8002C29.8864 17.8614 29.9714 17.8426 30.0499 17.8071C30.1284 17.7716 30.1988 17.7202 30.2565 17.6562L33.4315 14.0125H35.5252C35.672 14.5464 36.0074 15.009 36.4693 15.3143C36.9311 15.6197 37.4881 15.7472 38.0368 15.6732C38.5855 15.5992 39.0888 15.3286 39.4532 14.9117C39.8176 14.4949 40.0184 13.9599 40.0184 13.4062C40.0184 12.8525 39.8176 12.3176 39.4532 11.9008C39.0888 11.4839 38.5855 11.2133 38.0368 11.1393C37.4881 11.0653 36.9311 11.1928 36.4693 11.4982C36.0074 11.8035 35.672 12.2661 35.5252 12.8H33.1565C33.0703 12.8011 32.9853 12.8199 32.9068 12.8554C32.8283 12.8909 32.7579 12.9423 32.7002 13.0062L29.5252 16.65H21.344V14.375H29.269C29.356 14.3756 29.4421 14.3568 29.521 14.3201C29.5999 14.2833 29.6697 14.2295 29.7252 14.1625L31.9377 11.5625C32.0324 11.4534 32.0836 11.3132 32.0815 11.1687V8.75C32.6102 8.60337 33.0679 8.27008 33.3698 7.81186C33.6717 7.35363 33.7972 6.80154 33.7233 6.25783C33.6493 5.71412 33.3807 5.21566 32.9674 4.85476C32.5541 4.49387 32.0239 4.295 31.4752 4.295C30.9265 4.295 30.3964 4.49387 29.9831 4.85476C29.5697 5.21566 29.3012 5.71412 29.2272 6.25783C29.1532 6.80154 29.2788 7.35363 29.5806 7.81186C29.8825 8.27008 30.3402 8.60337 30.869 8.75V10.9625L28.994 13.1625H21.344V10.2625H24.1127C24.2129 10.263 24.3118 10.2395 24.401 10.1938C24.4902 10.1481 24.5671 10.0816 24.6252 10L25.4002 8.75C25.6031 8.81144 25.8133 8.84508 26.0252 8.85C26.4774 8.85245 26.9201 8.72086 27.2975 8.47183C27.6749 8.2228 27.97 7.86752 28.1456 7.45085C28.3212 7.03418 28.3694 6.57482 28.284 6.1308C28.1987 5.68677 27.9837 5.27799 27.6662 4.9561C27.3486 4.6342 26.9428 4.41363 26.5 4.32224C26.0572 4.23086 25.5972 4.27275 25.1782 4.44264C24.7591 4.61253 24.3999 4.90278 24.1457 5.27675C23.8916 5.65071 23.7539 6.09161 23.7502 6.54375C23.7528 7.11946 23.9766 7.67216 24.3752 8.0875L23.7502 9.05H21.344V4.44375C21.344 4.4125 21.344 4.39375 21.344 4.36875C21.3501 4.32521 21.3501 4.28104 21.344 4.2375C20.9829 3.20098 20.3068 2.3033 19.4102 1.67011C18.5137 1.03692 17.4416 0.69991 16.344 0.706249C15.3281 0.713713 14.3355 1.01198 13.4838 1.56578C12.632 2.11958 11.9567 2.90573 11.5377 3.83125C10.7494 3.58537 9.91429 3.52824 9.09981 3.66447C8.28533 3.8007 7.51428 4.12647 6.84886 4.6155C6.18343 5.10453 5.64228 5.74312 5.26905 6.47976C4.89583 7.2164 4.70098 8.03046 4.70023 8.85625C4.69723 9.3405 4.7646 9.82262 4.90023 10.2875C4.15686 10.5258 3.47539 10.9256 2.90465 11.4582C2.33391 11.9907 1.88802 12.643 1.59893 13.3681C1.30983 14.0932 1.18468 14.8733 1.23245 15.6525C1.28022 16.4317 1.49972 17.1906 1.87523 17.875C1.2096 18.3924 0.691775 19.0757 0.373718 19.8565C0.0556617 20.6372 -0.0514342 21.4879 0.0631797 22.3232C0.177794 23.1584 0.510085 23.9488 1.0267 24.615C1.54332 25.2812 2.22609 25.7998 3.00648 26.1187C2.52872 26.8748 2.25079 27.7398 2.19874 28.6326C2.14669 29.5254 2.32223 30.4169 2.7089 31.2233C3.09556 32.0297 3.68069 32.7248 4.40941 33.2432C5.13814 33.7617 5.9866 34.0866 6.87523 34.1875C6.90665 34.9937 7.14049 35.7789 7.5552 36.471C7.96992 37.163 8.55216 37.7395 9.24826 38.1473C9.94437 38.5551 10.7319 38.7811 11.5384 38.8046C12.3448 38.828 13.1441 38.648 13.8627 38.2812C14.7069 38.9403 15.748 39.2969 16.819 39.2937C17.7921 39.2892 18.7413 38.9916 19.5428 38.4397C20.3444 37.8879 20.9611 37.1074 21.3127 36.2C21.3183 36.1522 21.3183 36.104 21.3127 36.0562C21.3157 36.0313 21.3157 36.0062 21.3127 35.9812V30.9812H23.7502L24.3752 31.9437C23.9766 32.3591 23.7528 32.9118 23.7502 33.4875C23.749 33.9402 23.8821 34.3831 24.1327 34.7601C24.3833 35.1371 24.7401 35.4312 25.158 35.6053C25.5759 35.7794 26.036 35.8256 26.4802 35.7381C26.9243 35.6505 27.3325 35.4331 27.653 35.1135C27.9735 34.7938 28.192 34.3862 28.2808 33.9423C28.3696 33.4984 28.3246 33.0382 28.1517 32.6198C27.9787 32.2015 27.6856 31.8438 27.3092 31.5922C26.9329 31.3406 26.4904 31.2063 26.0377 31.2062C25.8258 31.2112 25.6156 31.2448 25.4127 31.3062L24.6252 30C24.5699 29.9137 24.4942 29.8424 24.4049 29.7923C24.3155 29.7421 24.2152 29.7147 24.1127 29.7125H21.344V26.875H28.9877L30.8627 29.075V31.25C30.3254 31.3968 29.8596 31.7337 29.5519 32.1979C29.2441 32.6622 29.1153 33.2224 29.1894 33.7745C29.2635 34.3266 29.5354 34.833 29.9546 35.1998C30.3739 35.5665 30.912 35.7687 31.469 35.7687C32.026 35.7687 32.5641 35.5665 32.9833 35.1998C33.4026 34.833 33.6745 34.3266 33.7486 33.7745C33.8226 33.2224 33.6938 32.6622 33.3861 32.1979C33.0783 31.7337 32.6125 31.3968 32.0752 31.25V28.8125C32.0774 28.668 32.0262 28.5279 31.9315 28.4188L29.719 25.8312C29.6634 25.7642 29.5937 25.7104 29.5148 25.6737C29.4359 25.6369 29.3498 25.6182 29.2627 25.6187H21.344V23.3687H29.5252L32.7002 27.0125C32.7579 27.0765 32.8283 27.1278 32.9068 27.1633C32.9853 27.1988 33.0703 27.2177 33.1565 27.2187H35.5252C35.6383 27.6288 35.8637 27.999 36.176 28.2877C36.4883 28.5764 36.8752 28.7721 37.2928 28.8525C37.7104 28.933 38.1423 28.8951 38.5395 28.7432C38.9368 28.5912 39.2836 28.3312 39.5409 27.9925C39.7982 27.6539 39.9557 27.25 39.9956 26.8266C40.0355 26.4031 39.9563 25.977 39.7668 25.5962C39.5773 25.2154 39.2851 24.8952 38.9233 24.6717C38.5614 24.4481 38.1443 24.3302 37.719 24.3312ZM37.719 12.3125C37.9316 12.3125 38.1394 12.3755 38.3162 12.4937C38.493 12.6118 38.6308 12.7797 38.7121 12.9761C38.7935 13.1725 38.8148 13.3887 38.7733 13.5972C38.7318 13.8058 38.6295 13.9973 38.4791 14.1476C38.3288 14.298 38.1372 14.4004 37.9287 14.4418C37.7202 14.4833 37.504 14.462 37.3076 14.3807C37.1112 14.2993 36.9433 14.1615 36.8251 13.9847C36.707 13.808 36.644 13.6001 36.644 13.3875C36.644 13.1024 36.7572 12.829 36.9588 12.6274C37.1604 12.4258 37.4339 12.3125 37.719 12.3125ZM30.4065 6.54375C30.4052 6.33061 30.4674 6.12191 30.585 5.94417C30.7027 5.76643 30.8705 5.62768 31.0672 5.54554C31.2639 5.46341 31.4805 5.44159 31.6897 5.48287C31.8988 5.52415 32.0909 5.62666 32.2416 5.77738C32.3923 5.92809 32.4948 6.12021 32.5361 6.32932C32.5774 6.53843 32.5556 6.7551 32.4734 6.95178C32.3913 7.14846 32.2525 7.31629 32.0748 7.43394C31.8971 7.55158 31.6884 7.61373 31.4752 7.6125C31.1923 7.61086 30.9214 7.49773 30.7213 7.29766C30.5212 7.09758 30.4081 6.82669 30.4065 6.54375ZM26.0315 5.46875C26.2441 5.46875 26.4519 5.5318 26.6287 5.64992C26.8055 5.76804 26.9433 5.93593 27.0246 6.13236C27.106 6.32879 27.1273 6.54494 27.0858 6.75347C27.0443 6.962 26.942 7.15355 26.7916 7.30389C26.6413 7.45423 26.4497 7.55661 26.2412 7.59809C26.0327 7.63957 25.8165 7.61828 25.6201 7.53692C25.4237 7.45555 25.2558 7.31777 25.1376 7.14099C25.0195 6.9642 24.9565 6.75636 24.9565 6.54375C24.9565 6.40205 24.9845 6.26175 25.0389 6.13092C25.0933 6.00008 25.1731 5.8813 25.2735 5.78139C25.374 5.68149 25.4933 5.60243 25.6244 5.54878C25.7556 5.49512 25.896 5.46793 26.0377 5.46875H26.0315ZM20.1252 9.65625V12.5C19.5903 12.2347 18.9948 12.1152 18.399 12.1536C17.8031 12.192 17.2279 12.387 16.7315 12.7187C16.6017 12.8119 16.5125 12.9513 16.4822 13.1083C16.452 13.2652 16.4831 13.4277 16.569 13.5625C16.662 13.6906 16.8002 13.7787 16.9557 13.8089C17.1112 13.839 17.2723 13.8091 17.4065 13.725C17.8179 13.4461 18.3129 13.3175 18.808 13.3607C19.3032 13.404 19.7684 13.6165 20.1252 13.9625V17.225V19.725C19.591 19.4561 18.9945 19.3352 18.3977 19.3748C17.8009 19.4143 17.2256 19.613 16.7315 19.95C16.637 20.0537 16.5801 20.1861 16.57 20.3261C16.56 20.466 16.5972 20.6052 16.6759 20.7214C16.7545 20.8375 16.87 20.9239 17.0036 20.9665C17.1373 21.0091 17.2814 21.0055 17.4127 20.9562C17.8214 20.6751 18.3147 20.5439 18.8091 20.5849C19.3035 20.6259 19.7685 20.8366 20.1252 21.1812V22.7187V26.25V30.3437V35.8375C19.9294 36.3217 19.6302 36.7573 19.2485 37.1139C18.8668 37.4705 18.4119 37.7394 17.9155 37.9019C17.4191 38.0644 16.8932 38.1165 16.3745 38.0547C15.8559 37.9928 15.357 37.8184 14.9127 37.5437C15.4682 37.0484 15.845 36.384 15.9851 35.6531C16.1252 34.9222 16.0207 34.1656 15.6877 33.5C15.6687 33.406 15.6283 33.3177 15.5697 33.2419C15.5111 33.166 15.4358 33.1047 15.3497 33.0626C15.2636 33.0205 15.169 32.9987 15.0731 32.999C14.9773 32.9993 14.8828 33.0217 14.7969 33.0644C14.7111 33.107 14.6362 33.1689 14.5781 33.2451C14.52 33.3213 14.4802 33.4099 14.4618 33.504C14.4434 33.598 14.4469 33.6951 14.4719 33.7876C14.497 33.8801 14.5431 33.9656 14.6065 34.0375C14.7344 34.3023 14.8086 34.5899 14.8247 34.8836C14.8408 35.1773 14.7985 35.4712 14.7003 35.7485C14.6021 36.0257 14.4499 36.2807 14.2525 36.4988C14.055 36.7168 13.8164 36.8935 13.5502 37.0187C13.5026 37.0491 13.4586 37.0848 13.419 37.125C12.8803 37.4312 12.2714 37.5924 11.6517 37.5928C11.0321 37.5932 10.423 37.4329 9.88387 37.1274C9.34476 36.822 8.89412 36.3819 8.57601 35.8501C8.2579 35.3184 8.0832 34.7132 8.06898 34.0938C9.13148 33.7875 11.1377 33.0187 11.4315 31.5062C11.4577 31.3485 11.4224 31.1866 11.3328 31.0541C11.2433 30.9216 11.1064 30.8284 10.9502 30.7937C10.7978 30.77 10.642 30.8035 10.5128 30.8877C10.3836 30.9719 10.29 31.101 10.2502 31.25C10.069 32.15 8.18148 32.8187 7.43148 32.9813C6.65083 32.9705 5.88981 32.7351 5.23948 32.3031C4.58916 31.8711 4.07708 31.2609 3.76454 30.5455C3.45199 29.83 3.35221 29.0397 3.47714 28.2691C3.60207 27.4984 3.94642 26.7801 4.46898 26.2C4.54503 26.1172 4.59736 26.0155 4.62046 25.9055C4.64356 25.7955 4.63657 25.6814 4.60023 25.575C4.56386 25.4743 4.50222 25.3846 4.42124 25.3146C4.34025 25.2445 4.24263 25.1965 4.13773 25.175C3.42412 25.035 2.76977 24.6819 2.26112 24.1622C1.75247 23.6424 1.41345 22.9807 1.28885 22.2642C1.16425 21.5478 1.25993 20.8104 1.56326 20.1494C1.86658 19.4885 2.36328 18.9352 2.98773 18.5625C3.23135 18.3987 3.50506 18.2849 3.79299 18.2276C4.08093 18.1703 4.37737 18.1708 4.66513 18.2289C4.95289 18.287 5.22625 18.4017 5.46938 18.5663C5.7125 18.7308 5.92055 18.942 6.08148 19.1875C6.13837 19.2674 6.21328 19.3328 6.30014 19.3784C6.387 19.424 6.48338 19.4486 6.58148 19.45C6.704 19.449 6.82354 19.4121 6.92523 19.3438C7.05404 19.2496 7.14198 19.1098 7.17103 18.9529C7.20008 18.7961 7.16804 18.634 7.08148 18.5C6.63624 17.8303 5.96991 17.3382 5.19884 17.1098C4.42776 16.8813 3.60094 16.9309 2.86273 17.25C2.57534 16.7141 2.41251 16.1203 2.38635 15.5128C2.36019 14.9053 2.47138 14.2997 2.71163 13.7411C2.95189 13.1825 3.31503 12.6853 3.77403 12.2865C4.23303 11.8876 4.77607 11.5974 5.36273 11.4375C5.60081 11.83 5.93548 12.155 6.33483 12.3815C6.73418 12.608 7.18489 12.7284 7.64398 12.7312C7.9575 12.7327 8.26871 12.6776 8.56273 12.5687C8.65775 12.5598 8.74945 12.5292 8.8308 12.4792C8.91215 12.4293 8.98099 12.3615 9.03203 12.2808C9.08308 12.2002 9.11499 12.1089 9.1253 12.014C9.13561 11.9192 9.12405 11.8232 9.09151 11.7334C9.05898 11.6437 9.00632 11.5626 8.93759 11.4964C8.86886 11.4302 8.78588 11.3806 8.69501 11.3514C8.60413 11.3223 8.50779 11.3143 8.41335 11.3281C8.31892 11.342 8.22891 11.3772 8.15023 11.4312C7.78213 11.5576 7.37908 11.5341 7.02821 11.3657C6.67734 11.1972 6.40686 10.8975 6.27523 10.5312C6.27758 10.5126 6.27758 10.4937 6.27523 10.475C5.95115 9.72326 5.86211 8.89106 6.01981 8.08778C6.17751 7.28449 6.57458 6.54772 7.15881 5.97431C7.74304 5.40089 8.48711 5.01767 9.2932 4.87501C10.0993 4.73235 10.9297 4.83693 11.6752 5.175H11.7377H11.8002C13.5315 5.5125 14.044 7.1 13.7752 8.51875C13.7508 8.67557 13.7869 8.83582 13.8763 8.96698C13.9657 9.09814 14.1016 9.19039 14.2565 9.225H14.369C14.5143 9.22823 14.6562 9.1807 14.7703 9.09058C14.8844 9.00046 14.9635 8.87339 14.994 8.73125C15.3877 6.61875 14.4815 4.84375 12.7565 4.175C13.0911 3.49267 13.6094 2.91715 14.253 2.51307C14.8967 2.10899 15.6403 1.89236 16.4002 1.8875C17.2265 1.88612 18.0333 2.13827 18.7117 2.60992C19.3901 3.08157 19.9075 3.75001 20.194 4.525L20.1252 9.65625ZM26.0315 32.3875C26.2444 32.3875 26.4524 32.4507 26.6294 32.5691C26.8063 32.6875 26.9441 32.8558 27.0252 33.0526C27.1064 33.2494 27.1273 33.4658 27.0853 33.6745C27.0434 33.8832 26.9403 34.0748 26.7894 34.2249C26.6384 34.3749 26.4463 34.4768 26.2373 34.5176C26.0284 34.5584 25.8121 34.5362 25.6157 34.4539C25.4194 34.3715 25.252 34.2328 25.1346 34.0552C25.0172 33.8776 24.9552 33.6691 24.9565 33.4562C24.9573 33.3151 24.9859 33.1754 25.0407 33.0453C25.0955 32.9152 25.1753 32.7972 25.2758 32.6979C25.3762 32.5987 25.4951 32.5202 25.6259 32.4669C25.7566 32.4137 25.8966 32.3867 26.0377 32.3875H26.0315ZM32.544 33.4562C32.5452 33.6691 32.4832 33.8776 32.3659 34.0552C32.2485 34.2328 32.081 34.3715 31.8847 34.4539C31.6884 34.5362 31.4721 34.5584 31.2631 34.5176C31.0542 34.4768 30.862 34.3749 30.7111 34.2249C30.5601 34.0748 30.4571 33.8832 30.4151 33.6745C30.3731 33.4658 30.394 33.2494 30.4752 33.0526C30.5564 32.8558 30.6942 32.6875 30.8711 32.5691C31.048 32.4507 31.2561 32.3875 31.469 32.3875C31.6101 32.3867 31.7501 32.4137 31.8808 32.4669C32.0116 32.5202 32.1306 32.5987 32.231 32.6979C32.3314 32.7972 32.4112 32.9152 32.466 33.0453C32.5208 33.1754 32.5494 33.3151 32.5502 33.4562H32.544ZM37.7127 27.6875C37.4999 27.6887 37.2914 27.6267 37.1138 27.5094C36.9362 27.392 36.7974 27.2246 36.7151 27.0282C36.6328 26.8319 36.6106 26.6156 36.6514 26.4066C36.6921 26.1977 36.794 26.0056 36.9441 25.8546C37.0942 25.7036 37.2857 25.6006 37.4944 25.5586C37.7031 25.5166 37.9196 25.5376 38.1164 25.6187C38.3132 25.6999 38.4815 25.8377 38.5999 26.0146C38.7183 26.1915 38.7815 26.3996 38.7815 26.6125C38.7815 26.8955 38.67 27.167 38.4711 27.3683C38.2721 27.5695 38.0019 27.6842 37.719 27.6875H37.7127Z" fill="#252422"/>
</g>
<defs>
<clipPath id="clip0_202_864">
<rect width="40" height="40" fill="white"/>
</clipPath>
</defs>
</svg>
