<svg id="Layer_3" enable-background="new 0 0 60 60" height="512" fill="#252422" viewBox="0 0 60 60" width="512" xmlns="http://www.w3.org/2000/svg"><path d="m50.03 21.6c0-9.15-8.46-16.6-18.85-16.6s-18.85 7.44-18.85 16.6v.91c0 .44.07.88.22 1.29l.52 1.48c.16.46.14.96-.06 1.41l-2.95 6.61c-.14.31-.11.67.07.95s.5.46.84.46h1.88v2.42c0 .33.16.64.44.83l.68.46c-.27.6-.46 1.4-.1 2.12.35.7.64 1.86.45 2.76l-.03.14c-.15.67-.39 1.8.41 2.66.82.88 2.42 1.09 5.19.68 4.57-.68 6.23-.25 8.53 7.53.13.44.53.72.96.72.09 0 .19-.01.28-.04.53-.16.83-.71.68-1.24-2.37-8.03-4.58-9.86-10.75-8.94-2.92.44-3.41-.04-3.43-.06-.08-.09.04-.65.09-.86l.03-.15c.31-1.47-.11-3.07-.6-4.03-.02-.16.19-.64.42-.96.16-.22.23-.49.19-.76s-.2-.51-.42-.66l-1.01-.69v-2.94c0-.55-.45-1-1-1h-1.34l2.32-5.2c.41-.91.45-1.94.12-2.88l-.52-1.48c-.07-.2-.11-.41-.11-.63v-.91c0-8.05 7.56-14.6 16.85-14.6s16.85 6.55 16.85 14.6c0 3.31-1.53 8.27-4.32 13.95-1.39 2.84-1.56 6.16-.46 9.12l2.23 6.04c.19.52.77.78 1.29.59s.78-.77.59-1.28l-2.23-6.04c-.91-2.45-.77-5.2.38-7.55 2.06-4.22 4.52-10.21 4.52-14.83z"/><path d="m43.65 23.21c0-6.83-5.56-12.4-12.4-12.4s-12.4 5.56-12.4 12.4 5.56 12.4 12.4 12.4 12.4-5.56 12.4-12.4zm-7.25 2.81c.08-.92.13-1.86.13-2.81 0-.94-.05-1.88-.13-2.81 3.3.66 5.24 1.88 5.24 2.81.01.93-1.94 2.15-5.24 2.81zm-5.15 7.59c-.93 0-2.14-1.94-2.81-5.24.92.08 1.86.13 2.81.13s1.88-.05 2.81-.13c-.67 3.29-1.88 5.24-2.81 5.24zm0-7.11c-1.11 0-2.15-.06-3.12-.17-.11-.96-.17-2-.17-3.12 0-1.11.06-2.15.17-3.12.96-.11 2-.17 3.12-.17s2.15.06 3.12.17c.11.96.17 2 .17 3.12 0 1.11-.06 2.15-.17 3.12-.97.1-2 .17-3.12.17zm-10.39-3.29c0-.93 1.94-2.14 5.24-2.81-.08.92-.13 1.86-.13 2.81 0 .94.05 1.88.13 2.81-3.3-.66-5.24-1.88-5.24-2.81zm10.39-10.39c.93 0 2.14 1.94 2.81 5.24-.92-.08-1.86-.13-2.81-.13s-1.88.05-2.81.13c.67-3.3 1.88-5.24 2.81-5.24zm9.84 7.06c-1.32-.71-3.04-1.23-4.95-1.55-.32-1.91-.84-3.64-1.55-4.95 3.05 1.03 5.46 3.45 6.5 6.5zm-13.17-6.51c-.71 1.32-1.23 3.04-1.55 4.95-1.91.32-3.64.84-4.95 1.55 1.03-3.04 3.45-5.46 6.5-6.5zm-6.51 13.17c1.32.71 3.04 1.23 4.95 1.55.32 1.91.84 3.64 1.55 4.95-3.04-1.03-5.46-3.44-6.5-6.5zm13.17 6.51c.71-1.32 1.23-3.04 1.55-4.95 1.91-.32 3.64-.84 4.95-1.55-1.03 3.05-3.44 5.46-6.5 6.5z"/></svg>