<svg width="40" height="40" viewBox="0 0 40 40" fill="none" xmlns="http://www.w3.org/2000/svg">
<path d="M21.25 8.75C20.7555 8.75 20.2722 8.89662 19.8611 9.17133C19.45 9.44603 19.1295 9.83648 18.9403 10.2933C18.7511 10.7501 18.7016 11.2528 18.798 11.7377C18.8945 12.2227 19.1326 12.6681 19.4822 13.0178C19.8319 13.3674 20.2773 13.6055 20.7623 13.702C21.2472 13.7984 21.7499 13.7489 22.2067 13.5597C22.6635 13.3705 23.054 13.05 23.3287 12.6389C23.6034 12.2278 23.75 11.7445 23.75 11.25C23.75 10.587 23.4866 9.95107 23.0178 9.48223C22.5489 9.01339 21.913 8.75 21.25 8.75ZM21.25 12.5C21.0028 12.5 20.7611 12.4267 20.5555 12.2893C20.35 12.152 20.1898 11.9568 20.0952 11.7284C20.0005 11.4999 19.9758 11.2486 20.024 11.0061C20.0723 10.7637 20.1913 10.5409 20.3661 10.3661C20.5409 10.1913 20.7637 10.0722 21.0061 10.024C21.2486 9.97579 21.4999 10.0005 21.7284 10.0952C21.9568 10.1898 22.152 10.35 22.2893 10.5555C22.4267 10.7611 22.5 11.0028 22.5 11.25C22.5 11.5815 22.3683 11.8995 22.1339 12.1339C21.8995 12.3683 21.5815 12.5 21.25 12.5Z" fill="#252422"/>
<path d="M26.875 11.875C26.5042 11.875 26.1416 11.985 25.8333 12.191C25.525 12.397 25.2846 12.6899 25.1427 13.0325C25.0008 13.3751 24.9637 13.7521 25.036 14.1158C25.1084 14.4795 25.287 14.8136 25.5492 15.0758C25.8114 15.338 26.1455 15.5166 26.5092 15.589C26.8729 15.6613 27.2499 15.6242 27.5925 15.4823C27.9351 15.3404 28.228 15.1 28.434 14.7917C28.64 14.4834 28.75 14.1208 28.75 13.75C28.75 13.2527 28.5525 12.7758 28.2008 12.4242C27.8492 12.0725 27.3723 11.875 26.875 11.875ZM26.875 14.375C26.7514 14.375 26.6306 14.3383 26.5278 14.2697C26.425 14.201 26.3449 14.1034 26.2976 13.9892C26.2503 13.875 26.2379 13.7493 26.262 13.6281C26.2861 13.5068 26.3457 13.3955 26.4331 13.3081C26.5205 13.2206 26.6318 13.1611 26.7531 13.137C26.8743 13.1129 27 13.1253 27.1142 13.1726C27.2284 13.2199 27.326 13.3 27.3947 13.4028C27.4633 13.5055 27.5 13.6264 27.5 13.75C27.5 13.9158 27.4342 14.0747 27.3169 14.1919C27.1997 14.3092 27.0408 14.375 26.875 14.375Z" fill="#252422"/>
<path d="M26.875 18.75C26.875 19.1208 26.985 19.4834 27.191 19.7917C27.397 20.1 27.6899 20.3404 28.0325 20.4823C28.3751 20.6242 28.7521 20.6613 29.1158 20.589C29.4795 20.5166 29.8136 20.338 30.0758 20.0758C30.338 19.8136 30.5166 19.4795 30.589 19.1158C30.6613 18.7521 30.6242 18.3751 30.4823 18.0325C30.3404 17.6899 30.1 17.397 29.7917 17.191C29.4834 16.985 29.1208 16.875 28.75 16.875C28.2527 16.875 27.7758 17.0725 27.4242 17.4242C27.0725 17.7758 26.875 18.2527 26.875 18.75ZM28.75 18.125C28.8736 18.125 28.9944 18.1617 29.0972 18.2303C29.2 18.299 29.2801 18.3966 29.3274 18.5108C29.3747 18.625 29.3871 18.7507 29.363 18.8719C29.3389 18.9932 29.2794 19.1045 29.1919 19.1919C29.1045 19.2794 28.9932 19.3389 28.8719 19.363C28.7507 19.3871 28.625 19.3747 28.5108 19.3274C28.3966 19.2801 28.299 19.2 28.2303 19.0972C28.1617 18.9945 28.125 18.8736 28.125 18.75C28.125 18.5842 28.1908 18.4253 28.3081 18.3081C28.4253 18.1908 28.5842 18.125 28.75 18.125Z" fill="#252422"/>
<path d="M36.875 1.25H3.125C2.62818 1.25148 2.15212 1.4495 1.80081 1.80081C1.4495 2.15212 1.25148 2.62818 1.25 3.125V33.125C1.25148 33.6218 1.4495 34.0979 1.80081 34.4492C2.15212 34.8005 2.62818 34.9985 3.125 35H15.0812L13.2312 37.7812C13.1668 37.8739 13.1297 37.9828 13.1242 38.0955C13.1186 38.2082 13.1449 38.3202 13.2 38.4188C13.2523 38.5193 13.3313 38.6034 13.4283 38.6618C13.5254 38.7203 13.6367 38.7508 13.75 38.75H26.25C26.3633 38.7508 26.4746 38.7203 26.5717 38.6618C26.6687 38.6034 26.7477 38.5193 26.8 38.4188C26.8551 38.3202 26.8814 38.2082 26.8758 38.0955C26.8703 37.9828 26.8332 37.8739 26.7688 37.7812L24.9187 35H36.875C37.3718 34.9985 37.8479 34.8005 38.1992 34.4492C38.5505 34.0979 38.7485 33.6218 38.75 33.125V3.125C38.7485 2.62818 38.5505 2.15212 38.1992 1.80081C37.8479 1.4495 37.3718 1.25148 36.875 1.25ZM25.0813 37.5H14.9188L16.5875 35H23.4125L25.0813 37.5ZM37.5 33.125C37.5 33.2908 37.4342 33.4497 37.3169 33.5669C37.1997 33.6842 37.0408 33.75 36.875 33.75H3.125C2.95924 33.75 2.80027 33.6842 2.68306 33.5669C2.56585 33.4497 2.5 33.2908 2.5 33.125V31.25H37.5V33.125ZM37.5 30H2.5V3.125C2.5 2.95924 2.56585 2.80027 2.68306 2.68306C2.80027 2.56585 2.95924 2.5 3.125 2.5H36.875C37.0408 2.5 37.1997 2.56585 37.3169 2.68306C37.4342 2.80027 37.5 2.95924 37.5 3.125V30Z" fill="#252422"/>
<path d="M22.7064 23.4375L15.8314 11.5313C15.7905 11.4595 15.7357 11.3966 15.6702 11.3462C15.6048 11.2958 15.53 11.2588 15.4502 11.2375C15.2898 11.1953 15.1192 11.2178 14.9752 11.3L12.8127 12.55C12.6693 12.6336 12.5646 12.7704 12.5213 12.9307C12.4781 13.0909 12.4997 13.2618 12.5814 13.4063L19.4564 25.3125C19.542 25.4549 19.6782 25.5598 19.8377 25.6063C19.891 25.6186 19.9455 25.6249 20.0002 25.625C20.1093 25.6233 20.2165 25.5954 20.3127 25.5437L22.4752 24.2937C22.5468 24.2529 22.6096 24.1983 22.6601 24.1331C22.7105 24.0679 22.7475 23.9933 22.769 23.9138C22.7905 23.8342 22.796 23.7511 22.7853 23.6694C22.7746 23.5876 22.7478 23.5088 22.7064 23.4375ZM20.2314 24.1438L13.9814 13.3188L15.0627 12.6938L21.3127 23.5188L20.2314 24.1438Z" fill="#252422"/>
<path d="M14.4998 7.96875L13.906 6.94375C13.6229 6.4542 13.2125 6.05036 12.7185 5.775L10.1373 4.34375C10.0425 4.291 9.93558 4.26383 9.82709 4.26493C9.7186 4.26602 9.61226 4.29534 9.51854 4.35C9.42555 4.40464 9.34804 4.48211 9.29336 4.57508C9.23867 4.66804 9.20862 4.77342 9.20604 4.88125L9.15604 7.83125C9.14853 8.39657 9.29317 8.95351 9.57479 9.44375L10.1685 10.4688C10.4177 10.8992 10.8273 11.2133 11.3077 11.3421C11.788 11.471 12.2999 11.4042 12.731 11.1562L13.8123 10.5312C14.0258 10.4082 14.2129 10.2443 14.3631 10.0489C14.5132 9.85355 14.6233 9.63048 14.6872 9.3925C14.751 9.15451 14.7673 8.90627 14.7352 8.66197C14.703 8.41768 14.623 8.18211 14.4998 7.96875ZM13.4748 9.06875C13.455 9.14839 13.4194 9.22322 13.37 9.28874C13.3206 9.35426 13.2584 9.40911 13.1873 9.45L12.106 10.075C11.9616 10.1568 11.7907 10.1784 11.6305 10.1351C11.4702 10.0918 11.3334 9.98714 11.2498 9.84375L10.656 8.81875C10.4862 8.52457 10.3997 8.18964 10.406 7.85L10.4373 5.94375L12.1123 6.86875C12.4089 7.03311 12.6552 7.27509 12.8248 7.56875L13.4123 8.59375C13.4547 8.66443 13.4821 8.74306 13.4928 8.82476C13.5036 8.90647 13.4974 8.98951 13.4748 9.06875Z" fill="#252422"/>
<path d="M17.708 7.48C19.9267 6.69642 22.3428 6.67151 24.5771 7.40919C26.8115 8.14686 28.7379 9.60537 30.0539 11.5559C31.37 13.5065 32.0013 15.8387 31.8489 18.1868C31.6965 20.5349 30.7689 22.766 29.2117 24.53C28.9762 23.7622 28.5007 23.0901 27.8552 22.6122C27.2097 22.1344 26.428 21.876 25.6249 21.875C25.4591 21.875 25.3001 21.9408 25.1829 22.0581C25.0657 22.1753 24.9999 22.3342 24.9999 22.5C24.9999 22.6658 25.0657 22.8247 25.1829 22.9419C25.3001 23.0592 25.4591 23.125 25.6249 23.125C26.2879 23.125 26.9238 23.3884 27.3926 23.8572C27.8615 24.3261 28.1249 24.962 28.1249 25.625C28.1252 25.6844 28.121 25.7437 28.1124 25.8025C28.0936 25.9294 28.1144 26.0589 28.1718 26.1736C28.2292 26.2883 28.3205 26.3825 28.4333 26.4435C28.5461 26.5045 28.675 26.5293 28.8024 26.5146C28.9298 26.4999 29.0496 26.4464 29.1455 26.3612C31.1993 24.5305 32.5536 22.0433 32.9772 19.3248C33.4007 16.6062 32.8671 13.825 31.4675 11.4562C30.0679 9.08744 27.8893 7.27815 25.3037 6.33747C22.7182 5.3968 19.8862 5.38311 17.2917 6.29875C17.1353 6.35395 17.0073 6.46901 16.9357 6.61863C16.8642 6.76825 16.855 6.94017 16.9102 7.09656C16.9654 7.25296 17.0804 7.38102 17.23 7.45258C17.3797 7.52413 17.5516 7.53332 17.708 7.47812V7.48Z" fill="#252422"/>
<path d="M16.4121 23.7712C15.4605 23.5164 14.5684 23.0766 13.7868 22.4769C13.0053 21.8772 12.3495 21.1294 11.8569 20.2762C11.3644 19.423 11.0448 18.4812 10.9164 17.5045C10.7879 16.5277 10.8532 15.5353 11.1083 14.5837C11.1321 14.5037 11.1397 14.4197 11.1305 14.3367C11.1213 14.2538 11.0955 14.1734 11.0548 14.1006C11.0141 14.0277 10.9591 13.9637 10.8932 13.9124C10.8273 13.8611 10.7519 13.8236 10.6712 13.8019C10.5906 13.7803 10.5064 13.775 10.4237 13.7865C10.341 13.7979 10.2614 13.8258 10.1897 13.8685C10.1179 13.9112 10.0554 13.9678 10.0059 14.0351C9.95644 14.1023 9.92092 14.1788 9.90147 14.26C9.30351 16.5016 9.61915 18.8888 10.7791 20.8979C11.9391 22.907 13.8487 24.374 16.089 24.9769C16.1415 24.9915 16.1957 24.9993 16.2502 25C16.4018 24.9999 16.5483 24.9447 16.6622 24.8447C16.7761 24.7447 16.8498 24.6067 16.8696 24.4563C16.8893 24.306 16.8537 24.1536 16.7694 24.0276C16.6851 23.9016 16.5579 23.8104 16.4115 23.7712H16.4121Z" fill="#252422"/>
</svg>
