<svg width="50" height="50" viewBox="0 0 50 50" fill="none" xmlns="http://www.w3.org/2000/svg">
<path d="M27.3438 6.25H22.6562C22.225 6.25 21.875 5.9 21.875 5.46875C21.875 5.0375 22.225 4.6875 22.6562 4.6875H27.3438C27.775 4.6875 28.125 5.0375 28.125 5.46875C28.125 5.9 27.775 6.25 27.3438 6.25Z" fill="#252422"/>
<path d="M33.5938 48.4375H16.4062C14.2516 48.4375 12.5 46.6844 12.5 44.5312V17.9688C12.5 17.5375 12.85 17.1875 13.2812 17.1875C13.7125 17.1875 14.0625 17.5375 14.0625 17.9688V44.5312C14.0625 45.8234 15.1141 46.875 16.4062 46.875H33.5938C34.8859 46.875 35.9375 45.8234 35.9375 44.5312V17.9688C35.9375 17.5375 36.2875 17.1875 36.7188 17.1875C37.15 17.1875 37.5 17.5375 37.5 17.9688V44.5312C37.5 46.6844 35.7484 48.4375 33.5938 48.4375Z" fill="#252422"/>
<path d="M36.7188 23.4375C36.2875 23.4375 35.9375 23.0875 35.9375 22.6562V5.46875C35.9375 4.17656 34.8859 3.125 33.5938 3.125H16.4062C15.1141 3.125 14.0625 4.17656 14.0625 5.46875V22.6562C14.0625 23.0875 13.7125 23.4375 13.2812 23.4375C12.85 23.4375 12.5 23.0875 12.5 22.6562V5.46875C12.5 3.31562 14.2516 1.5625 16.4062 1.5625H33.5938C35.7484 1.5625 37.5 3.31562 37.5 5.46875V22.6562C37.5 23.0875 37.15 23.4375 36.7188 23.4375Z" fill="#252422"/>
<path d="M40.4297 36.7969C39.9984 36.7969 39.6484 36.525 39.6484 36.0937V35.9375C39.6484 35.5063 39.9984 35.1562 40.4297 35.1562C40.8609 35.1562 41.2109 35.5063 41.2109 35.9375C41.2109 36.3687 40.8609 36.7969 40.4297 36.7969Z" fill="#252422"/>
<path d="M40.4297 39.9219C39.9984 39.9219 39.6484 39.65 39.6484 39.2187V39.0625C39.6484 38.6313 39.9984 38.2812 40.4297 38.2812C40.8609 38.2812 41.2109 38.6313 41.2109 39.0625C41.2109 39.4937 40.8609 39.9219 40.4297 39.9219Z" fill="#252422"/>
<path d="M40.4297 43.0469C39.9984 43.0469 39.6484 42.775 39.6484 42.3438V42.1875C39.6484 41.7563 39.9984 41.4062 40.4297 41.4062C40.8609 41.4062 41.2109 41.7563 41.2109 42.1875C41.2109 42.6187 40.8609 43.0469 40.4297 43.0469Z" fill="#252422"/>
<path d="M12.5 23.4375C9.91562 23.4375 7.8125 21.3344 7.8125 18.75C7.8125 17.1797 8.59375 15.7219 9.90312 14.8469C10.2578 14.6094 10.7453 14.7031 10.9859 15.0641C11.225 15.4219 11.1281 15.9078 10.7688 16.1469C9.89688 16.7312 9.375 17.7031 9.375 18.75C9.375 20.4734 10.7766 21.875 12.5 21.875C12.7094 21.875 12.9156 21.8547 13.1125 21.8141C13.5266 21.7281 13.9469 22.0016 14.0328 22.4266C14.1188 22.85 13.8437 23.2609 13.4203 23.3453C13.1219 23.4062 12.8156 23.4375 12.5 23.4375Z" fill="#252422"/>
<path d="M12.5 29.6875H11.1875C10.8203 29.6875 10.5016 29.4297 10.425 29.0703L10.0078 27.1437C9.43594 26.9703 8.875 26.7359 8.33438 26.4438L6.65625 27.5172C6.34531 27.7141 5.94375 27.6719 5.68281 27.4109L3.8375 25.5672C3.57813 25.3078 3.53437 24.9031 3.73281 24.5938L4.80625 22.9156C4.51406 22.3734 4.27969 21.8125 4.10625 21.2391L2.17656 20.8109C1.81719 20.7313 1.5625 20.4125 1.5625 20.0469V17.4531C1.5625 17.0875 1.81719 16.7688 2.175 16.6906L4.10469 16.2625C4.27813 15.6891 4.5125 15.1281 4.80469 14.5875L3.73438 12.9234C3.53438 12.6156 3.57656 12.2094 3.83594 11.95L5.68125 10.0906C5.93906 9.82813 6.34531 9.78437 6.65625 9.98281L8.33438 11.0563C8.87656 10.7641 9.43594 10.5297 10.0078 10.3562L10.425 8.42969C10.5156 8.00625 10.9391 7.7375 11.3531 7.83125C11.775 7.92188 12.0422 8.3375 11.9516 8.75938L11.4359 11.15C11.3734 11.4438 11.1469 11.6734 10.8562 11.7437C10.1187 11.9219 9.4 12.2219 8.71875 12.6359C8.46562 12.7922 8.14375 12.7875 7.89219 12.6281L6.34531 11.6391L5.38594 12.6047L6.375 14.1391C6.53906 14.3906 6.54219 14.7141 6.38594 14.9688C5.97187 15.6484 5.67188 16.3672 5.49531 17.1047C5.425 17.3953 5.19687 17.6203 4.90469 17.6859L3.125 18.0797V19.4188L4.90469 19.8141C5.19687 19.8797 5.425 20.1047 5.49531 20.3953C5.67188 21.1328 5.97344 21.8516 6.38594 22.5312C6.54219 22.7859 6.53906 23.1078 6.37656 23.3594L5.38594 24.9062L6.34219 25.8625L7.89063 24.8719C8.14219 24.7125 8.46562 24.7094 8.71719 24.8641C9.39844 25.2781 10.1172 25.5781 10.8531 25.7562C11.1453 25.8266 11.3703 26.0578 11.4328 26.35L11.8172 28.125H12.5C12.9312 28.125 13.2812 28.475 13.2812 28.9062C13.2812 29.3375 12.9312 29.6875 12.5 29.6875Z" fill="#252422"/>
<path d="M24.2184 28.9062C24.1559 28.9062 24.0934 28.8984 24.0294 28.8828C23.6091 28.7781 23.3559 28.3547 23.4606 27.9359L25.0231 21.6859C25.1262 21.2656 25.5434 21.0125 25.97 21.1172C26.3903 21.2219 26.6434 21.6453 26.5387 22.0641L24.9762 28.3141C24.8887 28.6703 24.57 28.9062 24.2184 28.9062Z" fill="#252422"/>
<path d="M28.9062 28.9062C28.7062 28.9062 28.5062 28.8297 28.353 28.6781C28.0483 28.3734 28.0483 27.8781 28.353 27.5734L30.9265 25L28.3546 22.4281C28.0499 22.1234 28.0499 21.6281 28.3546 21.3234C28.6593 21.0188 29.1546 21.0188 29.4593 21.3234L32.5843 24.4484C32.889 24.7531 32.889 25.2484 32.5843 25.5531L29.4593 28.6781C29.3062 28.8297 29.1062 28.9062 28.9062 28.9062Z" fill="#252422"/>
<path d="M21.0937 28.9062C20.8937 28.9062 20.6937 28.8297 20.5405 28.6781L17.4155 25.5531C17.1108 25.2484 17.1108 24.7531 17.4155 24.4484L20.5405 21.3234C20.8452 21.0188 21.3405 21.0188 21.6452 21.3234C21.9499 21.6281 21.9499 22.1234 21.6452 22.4281L19.0733 25L21.6452 27.5719C21.9499 27.8766 21.9499 28.3719 21.6452 28.6766C21.4937 28.8297 21.2937 28.9062 21.0937 28.9062Z" fill="#252422"/>
</svg>
